<?xml version="1.0" encoding="UTF-8"?>
<svg id="Layer_1" data-name="Layer 1" xmlns="http://www.w3.org/2000/svg" viewBox="0 0 960 960">
  <defs>
    <style>
      .cls-1, .cls-2 {
        stroke-width: 0px;
      }

      .cls-2 {
        fill: #fcd0af;
      }
    </style>
  </defs>
  <path class="cls-2" d="M307.85,617.26H32.31v-275.54h275.54v275.54Z"/>
  <path class="cls-1" d="M102.77,485.46c0,13.06,3.45,14.41,18.35,15.03v4.8h-59v-4.8c12.32-.49,15.77-1.97,15.77-15.03v-84.87c0-13.06-3.45-14.53-15.4-15.03v-4.8h103.96l.74,27.47h-5.17c-4.43-13.92-9.12-18.35-33.5-18.35h-18.85c-5.67,0-6.9,1.23-6.9,6.41v39.29h9.24c19.46,0,23.65-3.45,25.99-16.51h4.8v43.97h-4.8c-2.59-14.66-9.85-18.35-25.99-18.35h-9.24v40.77ZM284.21,380.76h-109.01l-2.59,27.47h6.28c3.94-13.43,9.85-18.35,23.03-18.35h15.4v95.58c0,13.06-3.45,14.41-17.61,15.03v4.8h59.99v-4.8c-14.04-.49-17.61-1.97-17.61-15.03v-95.46h15.4c13.18,0,18.97,4.8,23.03,18.35h6.28l-2.59-27.59Z"/>
  <path class="cls-1" d="M359.96,496.55c0,7.02,1.85,7.88,9.98,8.25v2.46h-32.15v-2.46c6.65-.37,8.62-1.11,8.62-8.25v-46.31c0-7.14-1.85-7.88-8.38-8.25v-2.59h56.66l.37,14.9h-2.83c-2.34-7.51-4.93-9.98-18.23-9.98h-10.35c-3.08,0-3.82.74-3.82,3.45v21.43h11.58c10.59,0,12.81-1.85,14.17-8.99h2.59v24.02h-2.59c-1.36-8.01-5.42-9.98-14.17-9.98h-11.45v22.29ZM426.84,496.55c0,7.02,1.85,7.88,9.98,8.25v2.46h-33.5v-2.46c8.13-.37,9.98-1.11,9.98-8.25v-46.31c0-7.14-1.85-7.88-9.98-8.25v-2.59h33.5v2.59c-8.13.25-9.98,1.11-9.98,8.25v46.31ZM506.78,452.08c0-6.65-1.85-9.24-9.24-10.1v-2.59h23.9v2.59c-7.39.86-9.12,3.45-9.12,10.1v56.78h-3.33l-46.31-53.46v39.17c0,6.65,1.73,9.24,9.12,10.1v2.46h-24.02v-2.46c7.39-.86,9.24-3.45,9.24-10.1v-45.58c-2.34-4.06-5.05-5.91-9.24-6.9v-2.59h18.48l40.4,46.68v-34.12h.12ZM542.99,483l10.22-26.85,10.1,26.85h-20.32ZM591.65,507.27v-2.46c-5.05.12-6.41-2.09-8.99-8.5l-23.9-58.51h-3.33l-24.88,60.48c-1.72,4.19-3.94,5.42-8.25,6.41v2.46h21.56v-2.46c-4.68,0-7.02-.98-7.02-4.31,0-2.83,3.08-10.35,3.94-12.44h24.51c.74,2.22,4.06,9.73,4.06,12.44,0,3.33-2.46,4.31-7.14,4.31v2.46l29.44.12ZM657.43,452.08c0-6.65-1.85-9.24-9.12-10.1v-2.59h23.9v2.59c-7.39.86-9.24,3.45-9.24,10.1v56.78h-3.33l-46.31-53.46v39.17c0,6.65,1.85,9.24,9.24,10.1v2.46h-24.02v-2.46c7.39-.86,9.24-3.45,9.24-10.1v-45.58c-2.34-4.06-5.05-5.91-9.24-6.9v-2.59h18.48l40.4,46.68v-34.12ZM743.16,491.25c-7.14,12.07-16.38,17.62-30.43,17.62-22.05,0-35.11-14.54-35.11-36.21,0-15.4,12.19-34.86,35.84-34.86,7.02,0,17.12,3.94,18.6,3.94,1.97,0,2.59-1.11,4.19-3.94h3.33l1.35,22.66h-2.96c-4.06-10.47-11.09-18.11-22.91-18.11-16.01,0-22.91,17.24-22.91,30.3,0,18.35,7.88,30.55,24.76,30.55,13.18,0,20.45-9.73,23.53-14.04l2.71,2.09ZM776.04,496.55c0,7.02,1.85,7.88,9.98,8.25v2.46h-33.5v-2.46c8.13-.37,9.98-1.11,9.98-8.25v-46.31c0-7.14-1.85-7.88-9.98-8.25v-2.59h33.5v2.59c-8.13.25-9.98,1.11-9.98,8.25v46.31ZM813.74,483l10.22-26.85,10.1,26.85h-20.32ZM862.39,507.27v-2.46c-5.05.12-6.41-2.09-8.99-8.5l-23.9-58.51h-3.33l-24.88,60.48c-1.73,4.19-3.94,5.42-8.25,6.41v2.46h21.56v-2.46c-4.68,0-7.02-.98-7.02-4.31,0-2.83,3.08-10.35,3.94-12.44h24.51c.74,2.22,4.06,9.73,4.06,12.44,0,3.33-2.46,4.31-7.14,4.31v2.46l29.44.12ZM868.3,507.27v-2.46c6.53-.25,8.38-1.11,8.38-8.25v-46.31c0-7.14-1.85-7.88-8.38-8.25v-2.59h31.29v2.59c-7.51.25-9.36,1.11-9.36,8.25v47.67c0,4.06,1.23,5.42,8.75,5.42,12.19,0,19.34-2.22,25.13-14.17h2.59l-4.56,18.11c.12,0-53.83,0-53.83,0ZM352.69,614.18c7.76-.37,9.61-1.11,9.61-8.25v-52.1h-8.38c-7.88,0-10.96,3.2-13.18,12.32h-2.96l1.6-17.37h59.49l1.6,17.37h-2.96c-2.22-9.24-5.3-12.32-13.18-12.32h-8.38v52.1c0,7.02,1.85,7.88,9.61,8.25v2.46h-32.76v-2.46h-.12ZM431.03,606.05c0,7.02,1.85,7.88,9.98,8.13v2.59h-33.5v-2.59c8.13-.25,9.98-1.11,9.98-8.13v-46.31c0-7.02-1.85-7.88-9.98-8.13v-2.59h33.5v2.59c-8.13.25-9.98,1.11-9.98,8.13,0-.12,0,46.31,0,46.31ZM512.2,548.9h23.4v2.59c-6.53.25-8.38,1.11-8.38,8.13v46.31c0,7.02,1.85,7.88,8.38,8.25v2.46h-30.55v-2.46c6.65-.37,8.62-1.11,8.62-8.25v-47.67h-.25l-22.66,59.37h-3.08l-22.17-59.25h-.25v45.7c0,6.65,1.85,9.24,9.24,10.1v2.46h-23.9v-2.46c7.39-.86,9.12-3.45,9.12-10.1v-46.07c0-4.68-1.97-6.53-9.12-6.53v-2.59h24.64l18.11,47.05c-.12,0,18.85-47.05,18.85-47.05ZM545.21,616.77v-2.46c6.53-.37,8.38-1.11,8.38-8.25v-46.31c0-7.02-1.85-7.88-8.38-8.13v-2.59h56.66l.37,14.91h-2.83c-2.46-7.51-5.05-9.98-18.23-9.98h-10.22c-3.08,0-3.82.74-3.82,3.45v21.43h11.58c10.59,0,12.81-1.85,14.17-8.99h2.59v23.9h-2.59c-1.36-8.01-5.42-9.98-14.17-9.98h-11.58v23.53c0,4.07,1.23,5.42,13.18,5.42s19.34-2.22,25.13-14.16h2.59l-4.56,18.11h-58.26v.12ZM616.9,595.46h2.59c2.83,8.99,11.45,18.35,21.43,18.35,8.62,0,11.7-5.91,11.7-11.33,0-15.52-35.11-18.48-35.11-37.81,0-9.36,9.11-17.37,19.46-17.37s13.8,3.57,18.23,3.57c1.85,0,3.08-1.48,3.57-3.57h2.59v21.56h-2.59c-2.83-9.73-9.73-17-18.97-17-7.51,0-10.35,4.93-10.35,9.48,0,13.8,35.11,14.29,35.11,38.06,0,10.72-8.75,18.85-20.94,18.85s-15.03-4.19-19.71-4.19c-1.73,0-2.96,1.23-3.33,3.33h-3.57l-.12-21.93Z"/>
</svg>