<svg xmlns="http://www.w3.org/2000/svg" width="102.394" height="97.367" viewBox="0 0 27.092 25.762"><defs/><defs><clipPath id="a"><path fill="#fff" d="M0 0h387v368H0z"/></clipPath></defs><g transform="matrix(.07 0 0 .07 0 0)" fill="none"><g clip-path="url(#a)" fill="currentColor"><path d="M0 101.69v249.332l121.206-102.47V0z"/><path d="M0 118.644v249.332l121.206-101.724V16.954zM167.577 266.064h-23.139L23.308 368h22.84zM211.115 266.064h-23.136L66.849 368h22.84zM255.271 266.064h-23.136L111.006 368h22.84zM298.81 266.064h-23.137L154.545 368h22.839zM343.461 266.064h-23.139L199.193 368h22.84zM387 266.064h-23.136L242.735 368h22.839zM299.755 55.737v.03l-.05-.03-45.711 78.99-45.714-78.99-.05.03v-.03h-38.237v154h38.237v-77.792l31.771 54.898 5.653 9.769h16.678l7.357-12.712 30.066-51.955v77.792h38.238v-154z"/></g></g></svg>